<svg width="50" height="43" viewBox="0 0 50 43" fill="none" xmlns="http://www.w3.org/2000/svg">
<path d="M22.0508 41.5409L21.8066 41.3162L4.69727 25.4276C1.69922 22.6444 0 18.7381 0 14.6463V14.3241C0 7.44906 4.88281 1.55062 11.6406 0.261556C15.4883 -0.480631 19.4238 0.40804 22.5586 2.61507C23.4375 3.24007 24.2578 3.96273 25 4.79281C25.4102 4.32406 25.8496 3.89437 26.3184 3.49398C26.6797 3.18148 27.0508 2.88851 27.4414 2.61507C30.5762 0.40804 34.5117 -0.480631 38.3594 0.251791C45.1172 1.54085 50 7.44906 50 14.3241V14.6463C50 18.7381 48.3008 22.6444 45.3027 25.4276L28.1934 41.3162L27.9492 41.5409C27.1484 42.283 26.0937 42.703 25 42.703C23.9063 42.703 22.8516 42.2928 22.0508 41.5409ZM23.3496 9.97835C23.3105 9.94906 23.2813 9.90999 23.252 9.87093L21.5137 7.91781L21.5039 7.90804C19.248 5.37874 15.8398 4.2264 12.5195 4.86117C7.96875 5.73031 4.6875 9.69515 4.6875 14.3241V14.6463C4.6875 17.4295 5.84961 20.0955 7.89063 21.9901L25 37.8787L42.1094 21.9901C44.1504 20.0955 45.3125 17.4295 45.3125 14.6463V14.3241C45.3125 9.70492 42.0312 5.73031 37.4902 4.86117C34.1699 4.2264 30.752 5.38851 28.5059 7.90804C28.5059 7.90804 28.5059 7.90804 28.4961 7.91781C28.4863 7.92757 28.4961 7.91781 28.4863 7.92757L26.748 9.8807C26.7187 9.91976 26.6797 9.94906 26.6504 9.98812C26.2109 10.4276 25.6152 10.6717 25 10.6717C24.3848 10.6717 23.7891 10.4276 23.3496 9.98812V9.97835Z" fill="#06283D"/>
</svg>
