<svg width="50" height="50" viewBox="0 0 50 50" fill="none" xmlns="http://www.w3.org/2000/svg">
<circle cx="25" cy="25" r="24" stroke="#112B3C" stroke-width="2"/>
<path d="M38.645 15.4841C38.5635 15.3073 38.4198 15.159 38.2367 15.0748C37.8568 14.8991 37.4228 14.7508 36.9385 14.6189C36.2116 14.4239 35.3702 14.271 34.4437 14.1639C33.5171 14.0586 32.5055 14 31.4444 14C30.029 14 28.7024 14.1025 27.547 14.2856C26.9683 14.3772 26.4346 14.4889 25.9493 14.6189C25.6069 14.7123 25.2911 14.8139 24.9999 14.9284C24.7088 14.8139 24.393 14.7123 24.0496 14.6189C23.3236 14.4239 22.4822 14.271 21.5557 14.1639C20.6283 14.0586 19.6166 14 18.5555 14C17.1401 14 15.8135 14.1025 14.6581 14.2856C14.0814 14.3772 13.5459 14.4888 13.0615 14.6189C12.5772 14.7507 12.1432 14.899 11.7624 15.0748C11.5793 15.159 11.4364 15.3073 11.355 15.484C10.7215 15.6424 10 15.939 10 16.4655C10 16.7942 10 31.7246 10 31.7246C10 33.1922 11.1902 34.3824 12.6578 34.3824H23.3685V34.5206C23.3685 34.809 23.6011 35.0424 23.8885 35.0424H26.1115C26.3989 35.0424 26.6315 34.809 26.6315 34.5206V34.3824H37.3422C38.8098 34.3824 40 33.1921 40 31.7246C40 31.7246 40 16.7942 40 16.4655C40 15.939 39.2786 15.6424 38.645 15.4841ZM24.1669 31.3638C24.1275 31.3528 24.0899 31.3409 24.0497 31.329C23.3236 31.1331 22.4823 30.9811 21.5557 30.874C20.6283 30.7687 19.6166 30.7101 18.5556 30.7101C17.1402 30.7101 15.8136 30.8136 14.6581 30.9958C14.0813 31.0873 13.5458 31.199 13.0615 31.329C13.0212 31.3409 12.9837 31.3528 12.9443 31.3638V16.3968C13.1127 16.3382 13.2968 16.2824 13.4954 16.2284C14.1198 16.0599 14.887 15.918 15.7449 15.82C16.6046 15.7211 17.5549 15.6672 18.5556 15.6672C19.8895 15.6672 21.1364 15.7651 22.1921 15.9318C22.7204 16.0151 23.2001 16.1167 23.6157 16.2284C23.8153 16.2825 23.9993 16.3383 24.1669 16.3969V31.3638V31.3638ZM37.0547 31.3638C37.0154 31.3528 36.9787 31.3409 36.9385 31.329C36.2116 31.1331 35.3702 30.9811 34.4437 30.874C33.5171 30.7687 32.5055 30.7101 31.4444 30.7101C30.029 30.7101 28.7024 30.8136 27.547 30.9958C26.9683 31.0873 26.4346 31.199 25.9493 31.329C25.91 31.3409 25.8724 31.3528 25.8331 31.3638V16.3968C26.0006 16.3382 26.1846 16.2824 26.3842 16.2284C27.0077 16.0599 27.774 15.918 28.6328 15.82C29.4924 15.7211 30.4437 15.6672 31.4443 15.6672C32.7773 15.6672 34.0243 15.7651 35.0808 15.9318C35.6091 16.0151 36.0879 16.1167 36.5045 16.2284C36.7032 16.2825 36.8871 16.3383 37.0547 16.3969V31.3638V31.3638Z" fill="#112B3C"/>
</svg>
