<svg width="70" height="53" viewBox="0 0 70 53" fill="none" xmlns="http://www.w3.org/2000/svg">
<path d="M54.9855 9.57363L49.9263 4.51632C48.5714 3.16203 46.3774 3.16083 45.0224 4.51512L41.7428 7.79472L17.141 32.3996C16.4766 33.064 15.9685 33.8659 15.6507 34.7495L12.4023 43.7903C12.0641 44.733 12.2992 45.7865 13.0083 46.4954C13.7165 47.2037 14.771 47.4394 15.714 47.1L24.7529 43.8507C25.6364 43.5333 26.4388 43.024 27.103 42.3608L50.8495 18.6134L50.85 18.6146L51.707 17.756L54.9854 14.477L54.9866 14.4753C56.3356 13.1221 56.3403 10.9297 54.9855 9.57363ZM18.856 34.1146L43.3383 9.62986L46.1761 12.4677L21.4486 37.1946L18.6256 34.3722C18.6996 34.284 18.7742 34.1962 18.856 34.1146ZM23.9331 41.5678L18.1731 43.6382L15.8642 41.3292L17.9342 35.5702C17.9487 35.5281 17.9694 35.4884 17.9856 35.447L24.0553 41.5163C24.014 41.533 23.9745 41.5531 23.9331 41.5678ZM25.3878 40.6458C25.3061 40.727 25.2185 40.8022 25.1303 40.8762L22.3064 38.0526L47.0336 13.3251L49.8702 16.1623L25.3878 40.6458ZM53.2699 12.762L50.8496 15.1834L50.7283 15.3049L44.1958 8.77249L46.7375 6.2302C47.145 5.82575 47.8035 5.82515 48.2114 6.2314L53.2699 11.2881C53.6768 11.6944 53.6773 12.3529 53.2682 12.7638L53.2699 12.762Z" fill="#112B3C"/>
</svg>
