<svg width="50" height="50" viewBox="0 0 50 50" fill="none" xmlns="http://www.w3.org/2000/svg">
<circle cx="25" cy="25" r="24" stroke="#112B3C" stroke-width="2"/>
<path d="M39.3236 14.0491L35.9509 10.6775C35.0476 9.77468 33.5849 9.77389 32.6816 10.6767L30.4952 12.8631L14.094 29.2664C13.651 29.7094 13.3123 30.2439 13.1004 30.833L10.9348 36.8602C10.7094 37.4887 10.8661 38.191 11.3388 38.6636C11.811 39.1358 12.514 39.2929 13.1426 39.0667L19.1686 36.9005C19.7576 36.6889 20.2925 36.3493 20.7353 35.9072L36.5663 20.0756L36.5667 20.0764L37.138 19.504L39.3236 17.318L39.3244 17.3168C40.2237 16.4147 40.2269 14.9531 39.3236 14.0491ZM15.2373 30.4098L31.5588 14.0866L33.4507 15.9784L16.9657 32.4631L15.0837 30.5815C15.1331 30.5227 15.1828 30.4642 15.2373 30.4098ZM18.6221 35.3786L14.7821 36.7588L13.2428 35.2194L14.6228 31.3801C14.6325 31.3521 14.6462 31.3256 14.6571 31.298L18.7035 35.3442C18.676 35.3553 18.6496 35.3687 18.6221 35.3786ZM19.5919 34.7639C19.5374 34.818 19.479 34.8681 19.4202 34.9174L17.5376 33.035L34.0224 16.5501L35.9134 18.4415L19.5919 34.7639ZM38.1799 16.1746L36.5664 17.7889L36.4855 17.8699L32.1305 13.515L33.825 11.8201C34.0966 11.5505 34.5356 11.5501 34.8076 11.8209L38.1799 15.1921C38.4512 15.4629 38.4515 15.9019 38.1787 16.1759L38.1799 16.1746Z" fill="#112B3C"/>
</svg>
