<svg width="70" height="53" viewBox="0 0 70 53" fill="none" xmlns="http://www.w3.org/2000/svg">
<path d="M58.8788 9.59711C58.7362 9.28785 58.4846 9.02832 58.1642 8.88098C57.4993 8.57336 56.7398 8.31383 55.8923 8.08312C54.6202 7.74187 53.1478 7.47424 51.5264 7.2868C49.905 7.10254 48.1346 7 46.2777 7C43.8007 7 41.4791 7.17944 39.4572 7.49988C38.4446 7.66015 37.5106 7.85559 36.6613 8.08312C36.0621 8.24657 35.5094 8.42437 34.9999 8.62463C34.4904 8.42437 33.9377 8.24646 33.3368 8.08312C32.0663 7.74187 30.5939 7.47424 28.9724 7.2868C27.3495 7.10254 25.579 7 23.7221 7C21.2452 7 18.9236 7.17944 16.9017 7.49988C15.8925 7.66004 14.9553 7.85548 14.1077 8.08302C13.2601 8.31373 12.5007 8.57326 11.8342 8.88087C11.5137 9.02832 11.2637 9.28785 11.1212 9.59701C10.0126 9.87427 8.75 10.3933 8.75 11.3146C8.75 11.8898 8.75 38.0181 8.75 38.0181C8.75 40.5864 10.8329 42.6691 13.4011 42.6691H32.1449V42.911C32.1449 43.4157 32.5519 43.8242 33.0549 43.8242H36.9451C37.4481 43.8242 37.8551 43.4157 37.8551 42.911V42.6691H56.5989C59.1672 42.6691 61.25 40.5863 61.25 38.0181C61.25 38.0181 61.25 11.8898 61.25 11.3146C61.25 10.3933 59.9875 9.87427 58.8788 9.59711ZM33.542 37.3867C33.4731 37.3675 33.4074 37.3466 33.3369 37.3258C32.0664 36.9829 30.594 36.7169 28.9725 36.5295C27.3496 36.3452 25.5791 36.2427 23.7222 36.2427C21.2453 36.2427 18.9237 36.4238 16.9018 36.7426C15.8924 36.9028 14.9552 37.0983 14.1076 37.3258C14.037 37.3466 13.9714 37.3675 13.9025 37.3867V11.1945C14.1973 11.0919 14.5194 10.9942 14.867 10.8997C15.9596 10.6049 17.3023 10.3565 18.8035 10.1851C20.308 10.012 21.9711 9.91754 23.7222 9.91754C26.0566 9.91754 28.2388 10.089 30.0861 10.3806C31.0106 10.5264 31.8501 10.7042 32.5775 10.8998C32.9268 10.9943 33.2488 11.092 33.542 11.1946V37.3867V37.3867ZM56.0958 37.3867C56.0269 37.3675 55.9628 37.3466 55.8923 37.3258C54.6202 36.9829 53.1478 36.7169 51.5264 36.5295C49.905 36.3452 48.1346 36.2427 46.2777 36.2427C43.8007 36.2427 41.4791 36.4238 39.4572 36.7426C38.4446 36.9028 37.5106 37.0983 36.6613 37.3258C36.5924 37.3466 36.5267 37.3675 36.4579 37.3867V11.1945C36.7511 11.0919 37.0731 10.9942 37.4224 10.8997C38.5135 10.6049 39.8545 10.3565 41.3573 10.1851C42.8618 10.012 44.5264 9.91754 46.2776 9.91754C48.6103 9.91754 50.7925 10.089 52.6414 10.3806C53.5659 10.5264 54.4039 10.7042 55.1328 10.8998C55.4805 10.9943 55.8025 11.092 56.0958 11.1946V37.3867V37.3867Z" fill="#112B3C"/>
</svg>
