<svg width="40" height="40" viewBox="0 0 40 40" fill="none" xmlns="http://www.w3.org/2000/svg">
<circle cx="20" cy="20" r="20" fill="#D9D9D9"/>
<path d="M14.8682 22.2281L22.7158 14.3801L21.3071 12.9718L13.4598 20.8189C12.9818 21.2966 12.6209 21.8525 12.3806 22.4449C12.0205 23.3331 11.9311 24.3015 12.1106 25.2299C12.2901 26.1578 12.7428 27.0496 13.4598 27.7664C13.9371 28.2445 14.4934 28.6058 15.0854 28.8456C15.974 29.2053 16.9421 29.2951 17.8704 29.1152C18.7988 28.9361 19.6902 28.4834 20.4069 27.7663L30.0309 18.1423C30.6857 17.4879 31.1796 16.728 31.5075 15.918C32.0003 14.703 32.123 13.376 31.8768 12.1058C31.6318 10.8355 31.0132 9.6174 30.0313 8.6354C29.3769 7.98065 28.6165 7.48749 27.8069 7.15873C26.5915 6.6664 25.2657 6.5441 23.9951 6.78948C22.7246 7.03486 21.5064 7.65351 20.5248 8.63582L10.5311 18.6291C9.68927 19.4709 9.05481 20.4476 8.63313 21.4883C7.99977 23.05 7.84215 24.755 8.15781 26.3893C8.47389 28.022 9.26759 29.5868 10.5311 30.8495C11.3725 31.6912 12.3492 32.3258 13.3903 32.7478C14.9515 33.3808 16.657 33.5388 18.2905 33.2223C19.9236 32.9067 21.4884 32.113 22.7515 30.8495L30.9684 22.6322L29.5599 21.2239L21.3427 29.4411C20.6915 30.0923 19.9434 30.5775 19.1434 30.9015C17.9446 31.3883 16.6284 31.5106 15.3705 31.2668C14.1122 31.0222 12.9162 30.4171 11.9399 29.4411C11.2882 28.79 10.8034 28.0419 10.4786 27.2414C9.9922 26.043 9.87032 24.7264 10.1138 23.4685C10.358 22.2106 10.9634 21.0142 11.9399 20.0378L21.9332 10.0446C22.3969 9.58077 22.9286 9.23574 23.4976 9.00502C24.3501 8.65914 25.2872 8.57222 26.1821 8.74534C27.0775 8.91929 27.9268 9.34927 28.6225 10.0437C29.0863 10.5079 29.4305 11.0396 29.6612 11.6082C30.0074 12.4606 30.0944 13.3981 29.9213 14.2931C29.7473 15.1881 29.3173 16.0378 28.6225 16.7335L18.9981 26.3575C18.711 26.6442 18.3834 26.8566 18.0328 26.9992C17.5067 27.2128 16.9274 27.2668 16.3747 27.1596C15.8216 27.0516 15.299 26.7871 14.8682 26.3575C14.5811 26.0705 14.3691 25.7428 14.227 25.3919C14.0134 24.8661 13.959 24.2864 14.0665 23.7337C14.1745 23.1806 14.4382 22.6581 14.8682 22.2281Z" fill="#4B4B4B"/>
</svg>
