<svg width="40" height="40" viewBox="0 0 40 40" fill="none" xmlns="http://www.w3.org/2000/svg">
<circle cx="20" cy="20" r="20" fill="#1D9BF0"/>
<path d="M29.543 15.5216C29.5576 15.7332 29.5576 15.9448 29.5576 16.1583C29.5576 22.6646 24.6045 30.1683 15.5476 30.1683V30.1644C12.8722 30.1683 10.2523 29.4019 8 27.9569C8.38903 28.0038 8.78001 28.0272 9.17197 28.0281C11.3892 28.0301 13.543 27.2861 15.2873 25.9162C13.1803 25.8763 11.3326 24.5025 10.6871 22.4969C11.4252 22.6392 12.1857 22.61 12.9102 22.412C10.613 21.9479 8.96039 19.9296 8.96039 17.5857C8.96039 17.5643 8.96039 17.5438 8.96039 17.5233C9.64485 17.9045 10.4112 18.1161 11.1951 18.1395C9.03157 16.6936 8.36466 13.8153 9.67118 11.565C12.1711 14.6412 15.8596 16.5112 19.8191 16.7092C19.4223 14.999 19.9644 13.2069 21.2436 12.0047C23.2268 10.1405 26.3459 10.236 28.2101 12.2183C29.3129 12.0008 30.3698 11.5962 31.337 11.0229C30.9694 12.1627 30.2001 13.1309 29.1725 13.7461C30.1484 13.6311 31.102 13.3697 32 12.971C31.3389 13.9616 30.5063 14.8245 29.543 15.5216Z" fill="white"/>
</svg>
